# Blender v3.2.0 OBJ File: 'anchor.blend'
# www.blender.org
mtllib anchor.mtl
o Cube
v 0.040000 0.044500 -0.017800
v 0.035600 0.044500 -0.020000
v 0.017398 0.019444 -0.001827
v 0.035600 0.050000 -0.017800
v 0.017398 0.038340 -0.001827
v 0.038711 0.044500 -0.019356
v 0.038140 0.047675 -0.019070
v 0.035600 0.048389 -0.019356
v 0.031795 0.019444 -0.001827
v 0.038711 0.048389 -0.017800
v 0.031795 0.038340 -0.001827
v 0.035600 -0.050000 -0.017800
v 0.035600 -0.044500 -0.020000
v 0.040000 -0.044500 -0.017800
v 0.035600 -0.048389 -0.019356
v 0.038140 -0.047675 -0.019070
v 0.038711 -0.044500 -0.019356
v 0.038711 -0.048389 -0.017800
v 0.035600 0.044500 0.008676
v 0.040000 0.044500 0.006282
v 0.035600 0.050000 0.006476
v 0.038711 0.044500 0.007935
v 0.038140 0.047675 0.007705
v 0.038711 0.048389 0.006379
v 0.035600 0.048389 0.008072
v 0.040000 -0.044500 0.016009
v 0.035600 -0.045530 0.018718
v 0.035600 -0.050000 0.017800
v 0.038716 -0.044331 0.017663
v 0.038414 -0.048098 0.018577
v 0.035600 -0.048691 0.018980
v 0.038711 -0.048389 0.016905
v -0.040000 0.044500 -0.017800
v -0.035600 0.050000 -0.017800
v -0.035600 0.044500 -0.020000
v -0.038711 0.048389 -0.017800
v -0.038140 0.047675 -0.019070
v -0.035600 0.048389 -0.019356
v -0.038711 0.044500 -0.019356
v -0.040000 -0.044500 -0.017800
v -0.035600 -0.044500 -0.020000
v -0.035600 -0.050000 -0.017800
v -0.038711 -0.044500 -0.019356
v -0.038140 -0.047675 -0.019070
v -0.035600 -0.048389 -0.019356
v -0.038711 -0.048389 -0.017800
v -0.040000 0.044500 0.006282
v -0.035600 0.044500 0.008676
v -0.035600 0.050000 0.006476
v -0.038705 0.044500 0.007977
v -0.038414 0.048017 0.007848
v -0.035600 0.048389 0.008032
v -0.038711 0.048389 0.006379
v -0.040000 -0.044500 0.016009
v -0.035600 -0.050000 0.017800
v -0.035600 -0.045530 0.018718
v -0.038711 -0.048176 0.017170
v -0.038140 -0.047893 0.018421
v -0.035600 -0.048904 0.019086
v -0.038711 -0.045015 0.017819
v 0.035600 -0.010511 -0.020000
v 0.040000 -0.010511 -0.017800
v 0.038711 -0.010511 -0.019356
v -0.035600 -0.005011 0.008676
v -0.040000 -0.010511 0.006274
v -0.035600 -0.014981 0.009958
v -0.038706 -0.007656 0.007975
v -0.038414 -0.010272 0.008457
v -0.038715 -0.011973 0.008389
v -0.035600 -0.010209 0.009051
v 0.035600 -0.014981 0.009958
v 0.040000 -0.010511 0.006274
v 0.035600 -0.005011 0.008676
v 0.038715 -0.011973 0.008389
v 0.038414 -0.010272 0.008457
v 0.038706 -0.007656 0.007975
v 0.035600 -0.010209 0.009051
v -0.040000 -0.010511 -0.017800
v -0.035600 -0.010511 -0.020000
v -0.038711 -0.010511 -0.019356
v 0.017398 0.038340 0.008676
v 0.017398 0.019444 0.008676
v 0.031795 0.019444 0.008676
v 0.031795 0.038340 0.008676
vt 0.473722 0.263750
vt 0.611250 0.263750
vt 0.611250 0.486250
vt 0.473722 0.486250
vt 0.386175 0.763750
vt 0.462547 0.763750
vt 0.462547 0.986250
vt 0.386175 0.986250
vt 0.388750 0.015664
vt 0.473722 0.020938
vt 0.473722 0.230820
vt 0.388750 0.234800
vt 0.487472 0.763750
vt 0.611250 0.763750
vt 0.595849 0.775640
vt 0.548610 0.775640
vt 0.611250 0.986250
vt 0.487472 0.986250
vt 0.548610 0.820631
vt 0.595849 0.820631
vt 0.638750 0.519180
vt 0.861250 0.519180
vt 0.861250 0.730820
vt 0.638750 0.730820
vt 0.388750 0.263750
vt 0.388750 0.486250
vt 0.388750 0.515200
vt 0.473722 0.519180
vt 0.473722 0.729062
vt 0.388750 0.734336
vt 0.138750 0.513750
vt 0.361250 0.513750
vt 0.361250 0.736250
vt 0.138750 0.736250
vt 0.611250 0.020870
vt 0.611250 0.230820
vt 0.611250 0.519180
vt 0.611250 0.500000
vt 0.623063 0.500765
vt 0.625000 0.519180
vt 0.625000 0.486250
vt 0.638750 0.500000
vt 0.361250 0.500000
vt 0.375000 0.501937
vt 0.375000 0.513750
vt 0.388750 0.500000
vt 0.375000 0.486250
vt 0.388750 0.500000
vt 0.611250 0.750000
vt 0.625000 0.747179
vt 0.625000 0.763750
vt 0.611250 0.729130
vt 0.625000 0.729975
vt 0.638750 0.750000
vt 0.391277 0.750000
vt 0.377451 0.748688
vt 0.375000 0.730654
vt 0.375000 0.763750
vt 0.361250 0.750000
vt 0.625000 0.230820
vt 0.625000 0.241894
vt 0.611250 0.250000
vt 0.861250 0.500000
vt 0.869189 0.500000
vt 0.875000 0.519180
vt 0.619189 0.250000
vt 0.625000 0.263750
vt 0.388750 0.250000
vt 0.380811 0.250000
vt 0.375000 0.236250
vt 0.375000 0.263750
vt 0.375000 0.255811
vt 0.388750 0.250000
vt 0.125000 0.513750
vt 0.125000 0.505811
vt 0.138750 0.500000
vt 0.611250 0.000000
vt 0.620043 0.000000
vt 0.625000 0.020025
vt 0.625000 0.986250
vt 0.625000 0.995043
vt 0.611250 1.000000
vt 0.875000 0.729975
vt 0.875000 0.742780
vt 0.861250 0.750000
vt 0.375000 0.017686
vt 0.375000 0.009869
vt 0.389685 0.000000
vt 0.138750 0.750000
vt 0.130811 0.750000
vt 0.125000 0.732314
vt 0.389685 1.000000
vt 0.383153 1.000000
vt 0.375000 0.986250
vt 0.480860 1.000000
vt 0.474320 1.000000
vt 0.473722 0.986250
vt 0.472156 0.000000
vt 0.473722 0.000000
vt 0.480860 -0.003461
vt 0.473722 0.995043
vt 0.472156 1.000000
vt 0.472156 0.750000
vt 0.473921 0.751652
vt 0.473722 0.763750
vt 0.480860 0.750000
vt 0.472156 0.751566
vt 0.473722 0.500000
vt 0.480860 0.000000
vt 0.473722 0.250000
vt 0.375000 0.250000
vt 0.625000 0.250000
vt 0.625000 0.111035
vt 0.375000 0.111035
vt 0.375000 0.500000
vt 0.625000 0.500000
vt 0.375000 0.638965
vt 0.625000 0.638965
vt 0.125000 0.500000
vt 0.125000 0.638965
vt 0.875000 0.638965
vt 0.875000 0.500000
vn 0.0000 0.0000 -1.0000
vn 0.0000 0.2757 0.9613
vn -1.0000 0.0000 0.0000
vn -0.0000 0.0000 1.0000
vn 0.0000 1.0000 0.0000
vn 1.0000 0.0000 0.0000
vn 0.0000 -1.0000 0.0000
vn 0.7853 0.2299 -0.5749
vn 0.1782 0.1425 -0.9736
vn 0.3198 0.6990 -0.6396
vn 0.3198 -0.6990 -0.6396
vn 0.1782 -0.1425 -0.9736
vn 0.7853 -0.2299 -0.5749
vn 0.2066 0.1311 0.9696
vn 0.8024 0.2216 0.5541
vn 0.3402 0.7024 0.6253
vn 0.8955 -0.0828 0.4372
vn 0.1911 0.1561 0.9691
vn 0.3963 -0.7825 0.4803
vn -0.7853 0.2299 -0.5749
vn -0.3198 0.6990 -0.6396
vn -0.1782 0.1425 -0.9736
vn -0.7853 -0.2299 -0.5749
vn -0.1782 -0.1425 -0.9736
vn -0.3198 -0.6990 -0.6396
vn -0.8684 0.1872 0.4592
vn -0.1533 0.1086 0.9822
vn -0.2893 0.7872 0.5446
vn -0.8534 -0.1049 0.5106
vn -0.4771 -0.7226 0.5002
vn -0.2321 0.1282 0.9642
vn -0.2546 0.0961 0.9622
vn -0.8105 0.0576 0.5828
vn -0.2792 0.1362 0.9505
vn 0.2792 0.1362 0.9505
vn 0.8105 0.0576 0.5828
vn 0.2546 0.0961 0.9622
vn -0.4835 -0.8753 0.0026
vn -0.9466 -0.3224 0.0010
vn 0.0000 -0.6947 -0.7193
vn 0.0000 -0.1635 -0.9866
vn 0.7701 0.0000 -0.6380
vn 0.2028 0.0000 -0.9792
vn -0.2199 -0.0000 0.9755
vn -0.7951 -0.0001 0.6064
vn 0.2136 0.2692 0.9391
vn 0.7860 0.1703 0.5943
vn -0.2028 0.0000 -0.9792
vn -0.7701 0.0000 -0.6380
vn -0.0002 0.6993 0.7149
vn -0.0003 0.1585 0.9874
vn 0.4598 0.8880 0.0000
vn 0.9492 0.3146 0.0000
vn 0.0016 -0.7159 0.6982
vn 0.0006 0.0959 0.9954
vn -0.4598 0.8880 0.0000
vn -0.9492 0.3146 0.0000
vn 0.0000 0.6947 -0.7193
vn 0.0000 0.1635 -0.9866
vn 0.4598 -0.8880 0.0000
vn 0.9492 -0.3146 0.0000
vn -0.2199 0.2683 0.9379
vn -0.7821 0.1713 0.5992
vn 0.2262 0.0004 0.9741
vn 0.7923 0.0001 0.6102
vn 0.0000 0.0720 0.9974
vn 0.0000 0.1866 0.9824
usemtl Material
s off
f 79/1/1 35/2/1 2/3/1 61/4/1
f 27/5/2 71/6/2 66/7/2 56/8/2
f 54/9/3 65/10/3 78/11/3 40/12/3
f 73/13/4 19/14/4 84/15/4 83/16/4
f 84/15/4 19/14/4 48/17/4 64/18/4 73/13/4 83/16/4 82/19/4 81/20/4
f 4/21/5 34/22/5 49/23/5 21/24/5
f 41/25/1 79/1/1 61/4/1 13/26/1
f 14/27/6 62/28/6 72/29/6 26/30/6
f 42/31/7 12/32/7 28/33/7 55/34/7
f 65/10/3 47/35/3 33/36/3 78/11/3
f 1/37/8 6/38/8 7/39/8 10/40/8
f 2/3/9 8/41/9 7/39/9 6/38/9
f 4/21/10 10/40/10 7/39/10 8/42/10
f 12/32/11 15/43/11 16/44/11 18/45/11
f 13/26/12 17/46/12 16/44/12 15/47/12
f 14/27/13 18/45/13 16/44/13 17/48/13
f 19/14/14 22/49/14 23/50/14 25/51/14
f 20/52/15 24/53/15 23/50/15 22/49/15
f 21/24/16 25/54/16 23/50/16 24/53/16
f 26/30/17 29/55/17 30/56/17 32/57/17
f 27/5/18 31/58/18 30/56/18 29/55/18
f 28/33/19 32/57/19 30/56/19 31/59/19
f 33/36/20 36/60/20 37/61/20 39/62/20
f 34/22/21 38/63/21 37/64/21 36/65/21
f 35/2/22 39/62/22 37/66/22 38/67/22
f 40/12/23 43/68/23 44/69/23 46/70/23
f 41/25/24 45/71/24 44/72/24 43/73/24
f 42/31/25 46/74/25 44/75/25 45/76/25
f 47/35/26 50/77/26 51/78/26 53/79/26
f 48/17/27 52/80/27 51/81/27 50/82/27
f 49/23/28 53/83/28 51/84/28 52/85/28
f 54/9/29 57/86/29 58/87/29 60/88/29
f 55/34/30 59/89/30 58/90/30 57/91/30
f 56/8/31 60/92/31 58/93/31 59/94/31
f 64/18/32 67/95/32 68/96/32 70/97/32
f 65/10/33 69/98/33 68/99/33 67/100/33
f 66/7/34 70/97/34 68/101/34 69/102/34
f 71/6/35 74/103/35 75/104/35 77/105/35
f 72/29/36 76/106/36 75/104/36 74/107/36
f 73/13/37 77/105/37 75/104/37 76/106/37
f 42/31/38 55/34/38 57/91/38 46/74/38
f 46/70/39 57/86/39 54/9/39 40/12/39
f 12/32/40 42/31/40 45/76/40 15/43/40
f 15/47/41 45/71/41 41/25/41 13/26/41
f 62/28/42 14/27/42 17/46/42 63/108/42
f 63/108/43 17/46/43 13/26/43 61/4/43
f 64/18/44 48/17/44 50/82/44 67/95/44
f 67/109/45 50/77/45 47/35/45 65/10/45
f 71/6/46 27/5/46 29/55/46 74/103/46
f 74/103/47 29/55/47 26/30/47 72/29/47
f 79/1/48 41/25/48 43/68/48 80/110/48
f 80/110/49 43/68/49 40/12/49 78/11/49
f 21/24/50 49/23/50 52/85/50 25/54/50
f 25/51/51 52/80/51 48/17/51 19/14/51
f 4/21/52 21/24/52 24/53/52 10/40/52
f 10/40/53 24/53/53 20/52/53 1/37/53
f 55/34/54 28/33/54 31/59/54 59/89/54
f 59/94/55 31/58/55 27/5/55 56/8/55
f 49/23/56 34/22/56 36/65/56 53/83/56
f 53/79/57 36/60/57 33/36/57 47/35/57
f 34/22/58 4/21/58 8/42/58 38/63/58
f 38/67/59 8/41/59 2/3/59 35/2/59
f 28/33/60 12/32/60 18/45/60 32/57/60
f 32/57/61 18/45/61 14/27/61 26/30/61
f 1/37/42 62/28/42 63/108/42 6/38/42
f 6/38/43 63/108/43 61/4/43 2/3/43
f 56/8/62 66/7/62 69/102/62 60/92/62
f 60/88/63 69/98/63 65/10/63 54/9/63
f 19/14/64 73/13/64 76/106/64 22/49/64
f 22/49/65 76/106/65 72/29/65 20/52/65
f 35/2/48 79/1/48 80/110/48 39/62/48
f 39/62/49 80/110/49 78/11/49 33/36/49
f 73/13/66 64/18/66 70/97/66 77/105/66
f 77/105/67 70/97/67 66/7/67 71/6/67
f 62/28/6 1/37/6 20/52/6 72/29/6
f 3/111/6 5/112/6 81/113/6 82/114/6
f 3/111/4 9/115/4 11/116/4 5/112/4
f 11/116/3 9/115/3 83/117/3 84/118/3
f 83/117/5 9/115/5 3/119/5 82/120/5
f 81/121/7 5/122/7 11/116/7 84/118/7
